<svg xmlns="http://www.w3.org/2000/svg" viewBox="0 0 32 32">
  <!-- Left claw -->
  <ellipse cx="5" cy="11" rx="5" ry="3.5" fill="#ff6b6b"/>
  <ellipse cx="2" cy="9" rx="3" ry="2" fill="#ff6b6b"/>
  <ellipse cx="2" cy="13" rx="3" ry="2" fill="#ff6b6b"/>
  <!-- Right claw -->
  <ellipse cx="27" cy="11" rx="5" ry="3.5" fill="#ff6b6b"/>
  <ellipse cx="30" cy="9" rx="3" ry="2" fill="#ff6b6b"/>
  <ellipse cx="30" cy="13" rx="3" ry="2" fill="#ff6b6b"/>
  <!-- Legs -->
  <ellipse cx="9" cy="24" rx="2" ry="4" fill="#ff6b6b" transform="rotate(-15 9 24)"/>
  <ellipse cx="23" cy="24" rx="2" ry="4" fill="#ff6b6b" transform="rotate(15 23 24)"/>
  <!-- Body -->
  <ellipse cx="16" cy="17" rx="10" ry="8" fill="#ff6b6b"/>
  <ellipse cx="16" cy="16" rx="8" ry="6" fill="#ff8585"/>
  <!-- Eyes -->
  <circle cx="12" cy="14" r="2.5" fill="#050810"/>
  <circle cx="20" cy="14" r="2.5" fill="#050810"/>
  <circle cx="13" cy="13" r="1" fill="#ffffff"/>
  <circle cx="21" cy="13" r="1" fill="#ffffff"/>
  <!-- Mouth -->
  <path d="M 13 20 Q 16 23 19 20" stroke="#050810" stroke-width="1" fill="none" stroke-linecap="round"/>
  <!-- Cheeks -->
  <circle cx="10" cy="18" r="1.5" fill="#ff4d4d" opacity="0.4"/>
  <circle cx="22" cy="18" r="1.5" fill="#ff4d4d" opacity="0.4"/>
</svg>
